<svg width="739" height="533" viewBox="0 0 739 533" fill="none" xmlns="http://www.w3.org/2000/svg">
<g clip-path="url(#clip0_105_152)">
<path d="M14.4399 59.06C24.0899 72.81 37.0099 80.79 53.6899 81.92C58.1099 82.22 58.0699 84.73 56.9299 87.92C56.3699 89.48 55.6399 90.98 55.1099 92.55C43.0299 128.4 60.6399 156.46 98.3499 161.55C111.88 163.37 125.64 163.81 138.79 168.04C193.47 185.64 223.52 247.5 203.91 302.71C188.32 346.62 158.14 371.48 110.47 373.36C97.6299 373.86 84.7799 375.36 73.6599 382.98C53.3999 396.78 46.5399 417.69 53.8799 443.26C60.1199 465.03 79.1299 479.26 104.39 480.26C119.3 480.86 134.25 480.75 149.16 480.33C156.16 480.14 158.74 482.33 158.47 489.4C158.04 501 158.09 512.62 158.47 524.22C158.68 530.9 155.83 532.69 149.6 532.6C130.95 532.34 112.26 533.22 93.5999 532.43C47.5099 530.43 5.83994 488.25 0.599939 440.43C-6.24006 378.13 37.0099 326.61 93.4599 322.51C102.137 321.817 110.76 320.551 119.27 318.72C144.13 313.55 157.21 296.82 158.08 269.72C158.96 242.39 147.44 225.41 122.17 218.97C108.57 215.51 94.4699 213.97 80.6199 211.53C8.20992 198.54 -19.3801 111.52 14.4399 59.06Z" fill="#444D56"/>
<path d="M23.18 30.4C23.77 12.4 38.18 -0.749987 56.65 -0.159987C73.71 0.390013 87.65 15.21 87.28 32.47C86.92 50.21 72.13 64.06 54.05 63.61C35.97 63.16 22.58 48.79 23.18 30.4Z" fill="#61CDCD"/>
<path d="M376.06 73.92L325 172.76V221.54H289V172.76L237.9 73.92H278.7L307.29 135.75L335.68 73.92H376.06Z" fill="#444D56"/>
<path d="M413 215.87C403.931 211.07 396.418 203.786 391.34 194.87C386.08 185.763 383.45 175.097 383.45 162.87C383.45 150.817 386.117 140.2 391.45 131.02C396.578 122.034 404.165 114.7 413.32 109.88C422.982 105.04 433.639 102.52 444.445 102.52C455.251 102.52 465.908 105.04 475.57 109.88C484.704 114.702 492.273 122.028 497.39 131C502.723 140.18 505.39 150.797 505.39 162.85C505.39 174.903 502.69 185.523 497.29 194.71C492.085 203.709 484.427 211.042 475.21 215.85C465.571 220.836 454.851 223.371 444 223.23C433.215 223.393 422.56 220.864 413 215.87V215.87ZM461.57 184.53C466.41 179.49 468.83 172.27 468.83 162.87C468.83 153.47 466.497 146.25 461.83 141.21C459.603 138.829 456.912 136.929 453.924 135.628C450.935 134.326 447.711 133.649 444.452 133.64C441.192 133.63 437.964 134.288 434.968 135.573C431.972 136.858 429.271 138.742 427.03 141.11C422.343 146.09 420 153.343 420 162.87C420 172.27 422.28 179.49 426.84 184.53C428.97 186.973 431.612 188.917 434.577 190.226C437.543 191.534 440.76 192.174 444 192.1C447.29 192.142 450.552 191.489 453.572 190.184C456.593 188.88 459.304 186.953 461.53 184.53H461.57Z" fill="#444D56"/>
<path d="M640.38 104.21V221.54H604.38V205.54C600.555 210.88 595.458 215.18 589.55 218.05C583.121 221.252 576.021 222.874 568.84 222.78C560.525 222.948 552.318 220.875 545.08 216.78C538.136 212.721 532.564 206.679 529.08 199.43C525.293 191.863 523.4 182.963 523.4 172.73V104.21H559.15V167.92C559.15 175.767 561.183 181.867 565.25 186.22C569.317 190.573 574.783 192.743 581.65 192.73C588.657 192.73 594.193 190.56 598.26 186.22C602.327 181.88 604.36 175.78 604.36 167.92V104.21H640.38Z" fill="#444D56"/>
<path d="M718 108.52C724.364 104.788 731.623 102.86 739 102.94V141H729.12C720.14 141 713.41 142.93 708.93 146.79C704.45 150.65 702.207 157.413 702.2 167.08V221.54H666.2V104.21H702.2V123.76C706.201 117.513 711.613 112.293 718 108.52Z" fill="#444D56"/>
<path d="M416.64 326.26V473.88H380.64V385.35L347.64 473.88H318.64L285.41 385.14V473.88H249.47V326.26H291.94L333.37 428.46L374.37 326.26H416.64Z" fill="#444D56"/>
<path d="M442.19 383.25C446.308 374.648 452.755 367.372 460.8 362.25C468.681 357.337 477.804 354.783 487.09 354.89C494.648 354.706 502.131 356.425 508.85 359.89C514.75 362.937 519.723 367.513 523.25 373.14V356.54H559.25V473.88H523.25V457.27C519.603 462.871 514.57 467.436 508.64 470.52C501.923 473.997 494.442 475.734 486.88 475.57C477.647 475.657 468.587 473.062 460.8 468.1C452.742 462.889 446.297 455.533 442.19 446.86C437.63 437.68 435.353 427.06 435.36 415C435.367 402.94 437.643 392.357 442.19 383.25ZM515.79 394C513.441 391.547 510.621 389.593 507.5 388.255C504.379 386.917 501.019 386.222 497.623 386.212C494.227 386.202 490.864 386.876 487.734 388.195C484.605 389.515 481.774 391.452 479.41 393.89C474.43 398.997 471.96 406.033 472 415C472.04 423.967 474.527 431.083 479.46 436.35C481.79 438.835 484.604 440.818 487.728 442.176C490.852 443.535 494.221 444.241 497.628 444.25C501.035 444.259 504.408 443.572 507.54 442.231C510.671 440.89 513.496 438.922 515.84 436.45C520.813 431.27 523.3 424.19 523.3 415.21C523.3 406.23 520.797 399.16 515.79 394Z" fill="#444D56"/>
<path d="M635.75 359.91C641.917 356.543 649.137 354.877 657.41 354.91C666.696 354.806 675.818 357.36 683.7 362.27C691.745 367.392 698.192 374.668 702.31 383.27C706.863 392.39 709.14 402.973 709.14 415.02C709.14 427.067 706.863 437.687 702.31 446.88C698.197 455.544 691.753 462.891 683.7 468.1C675.843 473.08 666.711 475.674 657.41 475.57C649.917 475.719 642.507 473.983 635.86 470.52C629.976 467.478 624.949 463.008 621.24 457.52V529.86H585.24V356.54H621.24V373.16C624.867 367.577 629.862 363.016 635.75 359.91V359.91ZM665.09 393.91C662.726 391.42 659.869 389.451 656.7 388.128C653.532 386.806 650.123 386.159 646.69 386.23C643.282 386.174 639.901 386.836 636.766 388.175C633.632 389.514 630.815 391.499 628.5 394C623.5 399.167 621 406.237 621 415.21C621 424.183 623.49 431.263 628.47 436.45C630.827 438.917 633.662 440.88 636.801 442.217C639.94 443.555 643.319 444.239 646.731 444.23C650.144 444.221 653.519 443.517 656.651 442.163C659.783 440.808 662.606 438.83 664.95 436.35C669.997 431.09 672.52 423.973 672.52 415C672.52 406.027 670.043 398.983 665.09 393.87V393.91Z" fill="#444D56"/>
</g>
<defs>
<clipPath id="clip0_105_152">
<rect width="739" height="533" fill="white"/>
</clipPath>
</defs>
</svg>
